CalSansUI-SemiBold.ufo
<glyph name="hyphen" format="2">
  <advance width="387.3"/>
  <unicode hex="002D"/>
  <outline>
    <contour>
      <point x="50.65" y="218.77499999999998" type="line"/>
      <point x="336.65" y="218.77499999999998" type="line"/>
      <point x="336.65" y="332.55" type="line"/>
      <point x="50.65" y="332.55" type="line"/>
    </contour>
  </outline>
</glyph>
<glyph name="five" format="2">
  <advance width="595.5"/>
  <unicode hex="0035"/>
  <outline>
    <contour>
      <point x="270.55" y="-13.0" type="curve" smooth="yes"/>
      <point x="417.32500000000005" y="-13.0"/>
      <point x="522.775" y="86.7"/>
      <point x="522.775" y="224.40000000000003" type="curve" smooth="yes"/>
      <point x="522.775" y="343.45"/>
      <point x="449.15" y="450.575"/>
      <point x="305.85" y="450.575" type="curve" smooth="yes"/>
      <point x="285.55" y="450.575"/>
      <point x="267.675" y="446.925"/>
      <point x="249.39999999999998" y="440.95000000000005" type="curve"/>
      <point x="247.39999999999998" y="442.95000000000005" type="line"/>
      <point x="290.325" y="646.8" type="line"/>
      <point x="205.75" y="592.925" type="line"/>
      <point x="480.025" y="592.925" type="line"/>
      <point x="480.025" y="700.0" type="line"/>
      <point x="187.975" y="700.0" type="line"/>
      <point x="100.575" y="297.675" type="line"/>
      <point x="158.85" y="330.6"/>
      <point x="211.825" y="346.55"/>
      <point x="265.55" y="346.55" type="curve" smooth="yes"/>
      <point x="348.32500000000005" y="346.55"/>
      <point x="397.6" y="297.025"/>
      <point x="397.6" y="223.10000000000002" type="curve" smooth="yes"/>
      <point x="397.6" y="147.95"/>
      <point x="342.35" y="99.775"/>
      <point x="271.55" y="99.45" type="curve" smooth="yes"/>
      <point x="210.6" y="99.125"/>
      <point x="167.425" y="121.4"/>
      <point x="123.775" y="166.35000000000002" type="curve"/>
      <point x="46.525" y="83.325" type="line"/>
      <point x="109.0" y="16.299999999999997"/>
      <point x="180.525" y="-13.0"/>
    </contour>
  </outline>
</glyph>
<glyph name="seven" format="2">
  <advance width="533.175"/>
  <unicode hex="0037"/>
  <outline>
    <contour>
      <point x="109.19999999999999" y="0.0" type="line"/>
      <point x="239.375" y="0.0" type="line"/>
      <point x="519.125" y="685.0" type="line"/>
      <point x="519.125" y="700.0" type="line"/>
      <point x="26.5" y="700.0" type="line"/>
      <point x="26.5" y="593.575" type="line"/>
      <point x="350.775" y="593.575" type="line"/>
      <point x="350.775" y="590.575" type="line"/>
      <point x="342.45" y="581.5749999999999"/>
      <point x="336.45" y="571.5749999999999"/>
      <point x="332.45" y="560.575" type="curve" smooth="yes"/>
    </contour>
  </outline>
</glyph>
<glyph name="at" format="2">
  <advance width="999.05"/>
  <unicode hex="0040"/>
  <outline>
    <contour>
      <point x="519.025" y="-216.0" type="curve" smooth="yes"/>
      <point x="573.0250000000001" y="-216.0"/>
      <point x="625.025" y="-208.0"/>
      <point x="673.025" y="-192.0" type="curve"/>
      <point x="643.925" y="-113.125" type="line"/>
      <point x="606.625" y="-125.45"/>
      <point x="565.3" y="-133.45"/>
      <point x="520.35" y="-133.45" type="curve" smooth="yes"/>
      <point x="295.5" y="-133.45"/>
      <point x="142.52499999999998" y="35.15"/>
      <point x="142.52499999999998" y="248.0" type="curve" smooth="yes"/>
      <point x="142.52499999999998" y="458.525"/>
      <point x="295.5" y="630.1"/>
      <point x="517.35" y="630.1" type="curve" smooth="yes"/>
      <point x="742.525" y="630.1"/>
      <point x="861.5250000000001" y="455.525"/>
      <point x="861.5250000000001" y="308.625" type="curve" smooth="yes"/>
      <point x="861.5250000000001" y="200.70000000000002"/>
      <point x="826.3" y="133.025"/>
      <point x="771.425" y="133.025" type="curve" smooth="yes"/>
      <point x="729.45" y="133.025"/>
      <point x="713.45" y="164.72500000000002"/>
      <point x="713.45" y="203.775" type="curve" smooth="yes"/>
      <point x="713.45" y="219.05"/>
      <point x="714.775" y="238.025"/>
      <point x="716.775" y="255.325" type="curve" smooth="yes"/>
      <point x="741.8" y="462.0" type="line"/>
      <point x="625.35" y="462.0" type="line"/>
      <point x="619.025" y="401.9" type="line"/>
      <point x="614.025" y="401.9" type="line"/>
      <point x="595.05" y="444.725"/>
      <point x="558.45" y="472.625"/>
      <point x="495.225" y="472.625" type="curve" smooth="yes"/>
      <point x="367.325" y="472.625"/>
      <point x="267.32500000000005" y="361.25"/>
      <point x="267.32500000000005" y="236.625" type="curve" smooth="yes"/>
      <point x="267.32500000000005" y="120.0"/>
      <point x="346.0" y="37.375"/>
      <point x="459.975" y="37.375" type="curve" smooth="yes"/>
      <point x="533.55" y="37.375"/>
      <point x="585.175" y="81.05"/>
      <point x="603.1" y="133.175" type="curve"/>
      <point x="608.1" y="133.175" type="line"/>
      <point x="628.25" y="74.975"/>
      <point x="672.2" y="37.375"/>
      <point x="751.3" y="37.375" type="curve" smooth="yes"/>
      <point x="885.8500000000001" y="37.375"/>
      <point x="950.775" y="161.0"/>
      <point x="950.775" y="296.0" type="curve" smooth="yes"/>
      <point x="950.775" y="507.0"/>
      <point x="783.025" y="713.0"/>
      <point x="519.025" y="713.0" type="curve" smooth="yes"/>
      <point x="252.02499999999998" y="713.0"/>
      <point x="53.275000000000006" y="507.0"/>
      <point x="53.275000000000006" y="248.0" type="curve" smooth="yes"/>
      <point x="53.275000000000006" y="-13.0"/>
      <point x="252.02499999999998" y="-216.0"/>
    </contour>
    <contour>
      <point x="488.8" y="143.1" type="curve" smooth="yes"/>
      <point x="428.025" y="143.1"/>
      <point x="391.525" y="185.95000000000002"/>
      <point x="391.525" y="241.325" type="curve" smooth="yes"/>
      <point x="391.525" y="310.05"/>
      <point x="443.025" y="366.225"/>
      <point x="513.675" y="366.225" type="curve" smooth="yes"/>
      <point x="569.625" y="366.225"/>
      <point x="606.4" y="323.725"/>
      <point x="606.4" y="267.625" type="curve" smooth="yes"/>
      <point x="606.4" y="201.25"/>
      <point x="554.625" y="143.1"/>
    </contour>
  </outline>
</glyph>
<glyph name="I" format="2">
  <advance width="282.45"/>
  <unicode hex="0049"/>
  <anchor x="141.225" y="0.0" name="bottom"/>
  <anchor x="111.65" y="0.0" name="ogonek"/>
  <anchor x="141.225" y="700.0" name="top"/>
  <outline>
    <contour>
      <point x="80.64999999999999" y="0.0" type="line"/>
      <point x="201.79999999999998" y="0.0" type="line"/>
      <point x="201.79999999999998" y="700.0" type="line"/>
      <point x="80.64999999999999" y="700.0" type="line"/>
      <point x="80.64999999999999" y="367.475" type="line"/>
    </contour>
  </outline>
</glyph>
<glyph name="underscore" format="2">
  <advance width="573.5"/>
  <unicode hex="005F"/>
  <outline>
    <contour>
      <point x="67.0" y="-97.125" type="line"/>
      <point x="506.5" y="-97.125" type="line"/>
      <point x="506.5" y="0.0" type="line"/>
      <point x="67.0" y="0.0" type="line"/>
    </contour>
  </outline>
</glyph>
<glyph name="c" format="2">
  <advance width="545.375"/>
  <unicode hex="0063"/>
  <anchor x="300.775" y="0.0" name="bottom"/>
  <anchor x="389.92499999999995" y="0.0" name="ogonek"/>
  <anchor x="302.8" y="500.125" name="top"/>
  <outline>
    <contour>
      <point x="298.15" y="-13.0" type="curve" smooth="yes"/>
      <point x="397.675" y="-13.0"/>
      <point x="465.0" y="23.375"/>
      <point x="513.35" y="85.4" type="curve"/>
      <point x="426.29999999999995" y="155.0" type="line"/>
      <point x="399.725" y="119.125"/>
      <point x="361.1" y="94.07499999999999"/>
      <point x="307.55" y="94.07499999999999" type="curve" smooth="yes"/>
      <point x="217.375" y="94.07499999999999"/>
      <point x="155.82500000000002" y="158.225"/>
      <point x="155.82500000000002" y="251.075" type="curve" smooth="yes"/>
      <point x="155.82500000000002" y="342.6"/>
      <point x="214.725" y="405.725"/>
      <point x="304.225" y="405.725" type="curve" smooth="yes"/>
      <point x="362.85" y="405.725"/>
      <point x="402.5" y="379.675"/>
      <point x="426.65" y="342.125" type="curve"/>
      <point x="513.675" y="411.07500000000005" type="line"/>
      <point x="465.67500000000007" y="477.1"/>
      <point x="390.95" y="513.8"/>
      <point x="295.15" y="512.8" type="curve" smooth="yes"/>
      <point x="139.0" y="510.79999999999995"/>
      <point x="38.7" y="393.45000000000005"/>
      <point x="38.7" y="251.075" type="curve" smooth="yes"/>
      <point x="38.7" y="109.05000000000001"/>
      <point x="141.675" y="-13.0"/>
    </contour>
  </outline>
</glyph>
<glyph name="f" format="2">
  <advance width="403.55"/>
  <unicode hex="0066"/>
  <anchor x="171.875" y="0.0" name="bottom"/>
  <anchor x="266.975" y="740.0" name="top"/>
  <outline>
    <contour>
      <point x="114.3" y="0.0" type="line"/>
      <point x="231.425" y="0.0" type="line"/>
      <point x="231.425" y="571.85" type="line" smooth="yes"/>
      <point x="231.425" y="624.8"/>
      <point x="267.15" y="651.65"/>
      <point x="319.27500000000003" y="651.65" type="curve" smooth="yes"/>
      <point x="344.575" y="651.65"/>
      <point x="364.55" y="649.975"/>
      <point x="384.525" y="643.65" type="curve"/>
      <point x="384.525" y="744.35" type="line"/>
      <point x="354.55" y="751.0"/>
      <point x="335.525" y="753.0"/>
      <point x="297.825" y="753.0" type="curve" smooth="yes"/>
      <point x="189.7" y="753.0"/>
      <point x="114.3" y="684.3"/>
      <point x="114.3" y="574.825" type="curve" smooth="yes"/>
    </contour>
    <contour>
      <point x="19.025" y="395.725" type="line"/>
      <point x="384.525" y="395.725" type="line"/>
      <point x="384.525" y="500.125" type="line"/>
      <point x="19.025" y="500.125" type="line"/>
    </contour>
  </outline>
</glyph>
<glyph name="z" format="2">
  <advance width="542.525"/>
  <unicode hex="007A"/>
  <anchor x="271.875" y="0.0" name="bottom"/>
  <anchor x="489.875" y="0.0" name="ogonek"/>
  <anchor x="271.875" y="500.125" name="top"/>
  <outline>
    <contour>
      <point x="44.65" y="0.0" type="line"/>
      <point x="489.875" y="0.0" type="line"/>
      <point x="489.875" y="104.4" type="line"/>
      <point x="236.70000000000002" y="104.4" type="line"/>
      <point x="236.70000000000002" y="106.4" type="line"/>
      <point x="247.675" y="114.375"/>
      <point x="253.97500000000002" y="123.0"/>
      <point x="271.3" y="148.675" type="curve" smooth="yes"/>
      <point x="493.875" y="485.125" type="line"/>
      <point x="493.875" y="500.125" type="line"/>
      <point x="54.65" y="500.125" type="line"/>
      <point x="54.65" y="395.725" type="line"/>
      <point x="304.825" y="395.725" type="line"/>
      <point x="304.825" y="393.725" type="line"/>
      <point x="293.175" y="385.07500000000005"/>
      <point x="284.875" y="374.125"/>
      <point x="266.225" y="346.45" type="curve" smooth="yes"/>
      <point x="44.65" y="15.0" type="line"/>
    </contour>
  </outline>
</glyph>
<glyph name="divide" format="2">
  <advance width="596.0"/>
  <unicode hex="00F7"/>
  <outline>
    <contour>
      <point x="70.52499999999999" y="267.175" type="line"/>
      <point x="516.025" y="267.175" type="line"/>
      <point x="516.025" y="364.825" type="line"/>
      <point x="70.52499999999999" y="364.825" type="line"/>
    </contour>
    <component base="tittle" xScale="0.95" yScale="0.95" xOffset="168.05" yOffset="-480.79999999999995"/>
    <component base="tittle" xScale="0.95" yScale="0.95" xOffset="170.05" yOffset="-132.325"/>
  </outline>
</glyph>
<glyph name="Hbar" format="2">
  <advance width="727.075"/>
  <unicode hex="0126"/>
  <anchor x="365.0" y="0.0" name="bottom"/>
  <anchor x="525.275" y="0.0" name="ogonek"/>
  <anchor x="365.0" y="700.0" name="top"/>
  <outline>
    <contour>
      <point x="11.299999999999999" y="513.85" type="line"/>
      <point x="715.7750000000001" y="513.85" type="line"/>
      <point x="715.7750000000001" y="617.6" type="line"/>
      <point x="11.299999999999999" y="617.6" type="line"/>
    </contour>
    <component base="H"/>
  </outline>
</glyph>
<glyph name="oe" format="2">
  <advance width="972.45"/>
  <unicode hex="0153"/>
  <anchor x="500.1" y="0.0" name="bottom"/>
  <anchor x="500.1" y="500.125" name="top"/>
  <outline>
    <contour>
      <point x="299.525" y="-13.0" type="curve" smooth="yes"/>
      <point x="449.92499999999995" y="-13.0"/>
      <point x="550.25" y="99.05000000000001"/>
      <point x="550.25" y="250.05" type="curve" smooth="yes"/>
      <point x="550.25" y="401.40000000000003"/>
      <point x="449.92499999999995" y="513.125"/>
      <point x="299.525" y="513.125" type="curve" smooth="yes"/>
      <point x="149.45" y="513.125"/>
      <point x="38.7" y="401.07500000000005"/>
      <point x="38.7" y="249.4" type="curve" smooth="yes"/>
      <point x="38.7" y="98.72500000000001"/>
      <point x="149.45" y="-13.0"/>
    </contour>
    <contour>
      <point x="299.525" y="94.07499999999999" type="curve" smooth="yes"/>
      <point x="214.75" y="94.07499999999999"/>
      <point x="155.82500000000002" y="157.20000000000002"/>
      <point x="155.82500000000002" y="249.72500000000002" type="curve" smooth="yes"/>
      <point x="155.82500000000002" y="343.57500000000005"/>
      <point x="214.75" y="406.04999999999995"/>
      <point x="299.525" y="406.04999999999995" type="curve" smooth="yes"/>
      <point x="384.3" y="406.04999999999995"/>
      <point x="443.55" y="342.925"/>
      <point x="443.55" y="249.72500000000002" type="curve" smooth="yes"/>
      <point x="443.55" y="156.55"/>
      <point x="384.3" y="94.07499999999999"/>
    </contour>
    <contour>
      <point x="704.05" y="-13.0" type="curve" smooth="yes"/>
      <point x="796.0999999999999" y="-13.0"/>
      <point x="873.1500000000001" y="23.725"/>
      <point x="917.125" y="76.625" type="curve"/>
      <point x="838.5250000000001" y="153.3" type="line"/>
      <point x="809.5999999999999" y="113.4"/>
      <point x="762.25" y="92.05000000000001"/>
      <point x="706.4" y="92.05000000000001" type="curve" smooth="yes"/>
      <point x="617.125" y="92.05000000000001"/>
      <point x="564.4" y="159.375"/>
      <point x="559.7" y="237.05" type="curve"/>
      <point x="559.025" y="255.125" type="line"/>
      <point x="558.7" y="358.625"/>
      <point x="613.55" y="415.5"/>
      <point x="697.0" y="415.5" type="curve" smooth="yes"/>
      <point x="785.45" y="415.5"/>
      <point x="827.275" y="355.375"/>
      <point x="823.95" y="258.5" type="curve"/>
      <point x="860.05" y="305.6" type="line"/>
      <point x="509.25" y="305.6" type="line"/>
      <point x="509.25" y="215.35000000000002" type="line"/>
      <point x="938.4000000000001" y="215.35000000000002" type="line"/>
      <point x="941.075" y="224.35"/>
      <point x="941.75" y="242.075"/>
      <point x="941.75" y="256.8" type="curve" smooth="yes"/>
      <point x="941.75" y="409.825"/>
      <point x="846.675" y="513.125"/>
      <point x="699.0" y="513.125" type="curve" smooth="yes"/>
      <point x="551.65" y="513.125"/>
      <point x="452.325" y="410.225"/>
      <point x="452.325" y="248.025" type="curve" smooth="yes"/>
      <point x="452.325" y="98.025"/>
      <point x="546.2750000000001" y="-13.0"/>
    </contour>
    <contour>
      <point x="475.0" y="419.29999999999995" type="line"/>
      <point x="475.0" y="81.5" type="line"/>
      <point x="522.175" y="81.5" type="line"/>
      <point x="522.175" y="419.29999999999995" type="line"/>
    </contour>
  </outline>
</glyph>
<glyph name="Schwa" format="2">
  <advance width="775.35"/>
  <unicode hex="018F"/>
  <outline>
    <contour>
      <point x="378.675" y="-13.0" type="curve" smooth="yes"/>
      <point x="585.7" y="-13.0"/>
      <point x="733.675" y="147.375"/>
      <point x="733.675" y="349.0" type="curve" smooth="yes"/>
      <point x="733.675" y="551.625"/>
      <point x="587.0" y="713.0"/>
      <point x="378.675" y="713.0" type="curve" smooth="yes"/>
      <point x="258.675" y="713.0"/>
      <point x="166.4" y="671.775"/>
      <point x="83.57499999999999" y="581.2249999999999" type="curve"/>
      <point x="173.55" y="501.775" type="line"/>
      <point x="225.60000000000002" y="564.625"/>
      <point x="289.45" y="595.15"/>
      <point x="376.325" y="595.15" type="curve" smooth="yes"/>
      <point x="515.65" y="595.15"/>
      <point x="607.525" y="488.05"/>
      <point x="607.525" y="349.0" type="curve" smooth="yes"/>
      <point x="607.525" y="209.95"/>
      <point x="518.8" y="104.85"/>
      <point x="376.325" y="104.85" type="curve" smooth="yes"/>
      <point x="258.075" y="104.85"/>
      <point x="173.925" y="176.45"/>
      <point x="167.2" y="295.72499999999997" type="curve"/>
      <point x="136.9" y="275.75" type="line"/>
      <point x="658.525" y="275.425" type="line"/>
      <point x="658.525" y="386.575" type="line"/>
      <point x="46.025" y="386.575" type="line"/>
      <point x="43.35" y="368.5"/>
      <point x="41.675" y="342.05"/>
      <point x="41.675" y="321.675" type="curve" smooth="yes"/>
      <point x="41.675" y="127.35"/>
      <point x="172.25" y="-13.0"/>
    </contour>
  </outline>
</glyph>
<glyph name="sheqel" format="2">
  <advance width="594.4749999999999"/>
  <unicode hex="20AA"/>
  <outline>
    <contour>
      <point x="237.32500000000002" y="30.0" type="line"/>
      <point x="371.425" y="30.0" type="line" smooth="yes"/>
      <point x="516.425" y="30.0"/>
      <point x="553.475" y="103.0"/>
      <point x="553.475" y="230.0" type="curve" smooth="yes"/>
      <point x="553.475" y="469.125" type="line"/>
      <point x="473.35" y="469.125" type="line"/>
      <point x="473.35" y="239.775" type="line" smooth="yes"/>
      <point x="473.35" y="184.82500000000002"/>
      <point x="443.7" y="142.45"/>
      <point x="356.275" y="142.45" type="curve" smooth="yes"/>
      <point x="237.32500000000002" y="142.45" type="line"/>
    </contour>
    <contour>
      <point x="42.0" y="30.0" type="line"/>
      <point x="122.125" y="30.0" type="line"/>
      <point x="122.125" y="470.125" type="line"/>
      <point x="42.0" y="470.125" type="line"/>
    </contour>
    <contour>
      <point x="186.325" y="30.0" type="line"/>
      <point x="266.45" y="30.0" type="line"/>
      <point x="266.45" y="303.475" type="line"/>
      <point x="186.325" y="303.475" type="line"/>
    </contour>
    <contour>
      <point x="328.70000000000005" y="195.65" type="line"/>
      <point x="409.15" y="195.65" type="line"/>
      <point x="409.15" y="270.125" type="line" smooth="yes"/>
      <point x="409.15" y="397.125"/>
      <point x="376.325" y="470.125"/>
      <point x="231.325" y="470.125" type="curve" smooth="yes"/>
      <point x="93.0" y="470.125" type="line"/>
      <point x="93.0" y="357.675" type="line"/>
      <point x="216.5" y="357.675" type="line" smooth="yes"/>
      <point x="302.975" y="357.675"/>
      <point x="328.70000000000005" y="319.35"/>
      <point x="328.70000000000005" y="261.025" type="curve" smooth="yes"/>
    </contour>
  </outline>
</glyph>
<glyph name="kip" format="2">
  <advance width="632.4"/>
  <unicode hex="20AD"/>
  <anchor x="313.575" y="28.65" name="bottom"/>
  <anchor x="464.925" y="28.65" name="ogonek"/>
  <anchor x="303.575" y="673.6313375" name="top"/>
  <outline>
    <contour>
      <point x="0.0" y="319.275" type="line"/>
      <point x="622.4" y="319.275" type="line"/>
      <point x="622.4" y="400.05" type="line"/>
      <point x="0.0" y="400.05" type="line"/>
    </contour>
    <component base="K" yScale="0.9200875" yOffset="28.65"/>
  </outline>
</glyph>
<glyph name="Ohm" format="2">
  <advance width="791.4"/>
  <unicode hex="2126"/>
  <outline>
    <contour>
      <point x="20.65" y="0.0" type="line"/>
      <point x="335.2" y="0.0" type="line"/>
      <point x="335.2" y="89.4" type="line"/>
      <point x="263.725" y="103.97500000000001"/>
      <point x="166.47500000000002" y="195.2"/>
      <point x="166.47500000000002" y="349.0" type="curve" smooth="yes"/>
      <point x="166.47500000000002" y="503.79999999999995"/>
      <point x="265.725" y="595.15"/>
      <point x="395.375" y="595.15" type="curve" smooth="yes"/>
      <point x="524.675" y="595.15"/>
      <point x="624.275" y="504.125"/>
      <point x="624.275" y="349.325" type="curve" smooth="yes"/>
      <point x="624.275" y="201.925"/>
      <point x="534.425" y="110.375"/>
      <point x="467.0" y="89.4" type="curve"/>
      <point x="467.0" y="0.0" type="line"/>
      <point x="770.75" y="0.0" type="line"/>
      <point x="770.75" y="114.475" type="line"/>
      <point x="655.35" y="114.475" type="line"/>
      <point x="655.35" y="116.8" type="line"/>
      <point x="709.65" y="165.575"/>
      <point x="748.1" y="262.8"/>
      <point x="748.1" y="349.325" type="curve" smooth="yes"/>
      <point x="748.1" y="555.375"/>
      <point x="599.3499999999999" y="713.0"/>
      <point x="395.375" y="713.0" type="curve" smooth="yes"/>
      <point x="191.4" y="713.0"/>
      <point x="42.65" y="554.725"/>
      <point x="42.65" y="349.0" type="curve" smooth="yes"/>
      <point x="42.65" y="259.20000000000005"/>
      <point x="81.8" y="164.9"/>
      <point x="135.75" y="116.8" type="curve"/>
      <point x="135.75" y="114.475" type="line"/>
      <point x="20.65" y="114.475" type="line"/>
    </contour>
  </outline>
</glyph>
<glyph name="D.circled" format="2">
  <advance width="899.375"/>
  <unicode hex="24B9"/>
  <anchor x="447.76099999999997" y="120.0" name="bottom"/>
  <anchor x="311.85220000000004" y="354.0743" name="center"/>
  <anchor x="460.217" y="589.49" name="top"/>
  <outline>
    <contour>
      <point x="449.34999999999997" y="-50.0" type="curve" smooth="yes"/>
      <point x="671.675" y="-50.0"/>
      <point x="851.45" y="129.0"/>
      <point x="851.45" y="352.0" type="curve" smooth="yes"/>
      <point x="851.45" y="574.6500000000001"/>
      <point x="672.35" y="753.325"/>
      <point x="449.34999999999997" y="753.325" type="curve" smooth="yes"/>
      <point x="227.02499999999998" y="753.325"/>
      <point x="47.925" y="574.6500000000001"/>
      <point x="47.925" y="352.0" type="curve" smooth="yes"/>
      <point x="47.925" y="129.0"/>
      <point x="227.02499999999998" y="-50.0"/>
    </contour>
    <contour>
      <point x="449.34999999999997" y="22.775" type="curve" smooth="yes"/>
      <point x="269.07500000000005" y="22.775"/>
      <point x="126.725" y="170.725"/>
      <point x="126.725" y="352.0" type="curve" smooth="yes"/>
      <point x="126.725" y="532.275"/>
      <point x="269.07500000000005" y="680.225"/>
      <point x="449.34999999999997" y="680.225" type="curve" smooth="yes"/>
      <point x="630.625" y="680.225"/>
      <point x="772.65" y="532.275"/>
      <point x="772.65" y="352.0" type="curve" smooth="yes"/>
      <point x="772.65" y="170.725"/>
      <point x="629.95" y="22.775"/>
    </contour>
    <component base="D" xScale="0.692" yScale="0.6707" xOffset="213.0" yOffset="120.0"/>
  </outline>
</glyph>
<glyph name="rightBlackSmallTriangle" format="2">
  <advance width="355.125"/>
  <unicode hex="25B8"/>
  <outline>
    <contour>
      <point x="90.0" y="225.225" type="line"/>
      <point x="325.125" y="361.35" type="line"/>
      <point x="90.0" y="496.47499999999997" type="line"/>
    </contour>
  </outline>
</glyph>
<glyph name="ballotBoxWithCheck" format="2">
  <advance width="890.0"/>
  <unicode hex="2611"/>
  <outline>
    <contour>
      <point x="356.0" y="149.25" type="line"/>
      <point x="411.52500000000003" y="226.875" type="line"/>
      <point x="280.575" y="367.15" type="line"/>
      <point x="213.0" y="302.25" type="line"/>
    </contour>
    <contour>
      <point x="356.0" y="149.25" type="line"/>
      <point x="680.325" y="498.575" type="line"/>
      <point x="612.425" y="563.475" type="line"/>
      <point x="301.475" y="228.525" type="line"/>
    </contour>
    <component base="whiteSquare"/>
  </outline>
</glyph>
<glyph name="ballotX" format="2">
  <advance width="600.0"/>
  <unicode hex="2717"/>
  <outline>
    <contour>
      <point x="435.54999999999995" y="148.225" type="line"/>
      <point x="502.8" y="214.45" type="line"/>
      <point x="165.8" y="551.775" type="line"/>
      <point x="98.55" y="484.875" type="line"/>
    </contour>
    <contour>
      <point x="165.125" y="146.875" type="line"/>
      <point x="501.45" y="484.875" type="line"/>
      <point x="435.54999999999995" y="552.45" type="line"/>
      <point x="99.225" y="214.45" type="line"/>
    </contour>
  </outline>
</glyph>
<glyph name="fl" format="2">
  <advance width="621.3499999999999"/>
  <unicode hex="FB02"/>
  <anchor x="171.875" y="0.0" name="bottom_1"/>
  <anchor x="266.975" y="740.0" name="top_1"/>
  <anchor x="492.475" y="0.0" name="bottom_2"/>
  <anchor x="492.475" y="393.0" name="center_2"/>
  <anchor x="550.7" y="0.0" name="ogonek_2"/>
  <anchor x="492.475" y="740.0" name="top_2"/>
  <anchor x="600.7" y="740.0" name="topright_2"/>
  <anchor x="392.0" y="0.0" name="caret_1"/>
  <outline>
    <contour>
      <point x="19.7" y="395.725" type="line"/>
      <point x="540.7" y="395.725" type="line"/>
      <point x="550.7" y="500.125" type="line"/>
      <point x="19.7" y="500.125" type="line"/>
    </contour>
    <component base="f"/>
    <component base="l" xOffset="362.925"/>
  </outline>
</glyph>
<glyph name="acutecomb.case" format="2">
  <anchor x="0.0" y="700.0" name="_top"/>
  <anchor x="0.0" y="820.0" name="top"/>
  <outline>
    <contour>
      <point x="-33.425" y="740.0" type="line"/>
      <point x="32.75" y="740.0" type="line"/>
      <point x="140.325" y="855.7" type="line"/>
      <point x="14.275" y="855.7" type="line"/>
    </contour>
  </outline>
</glyph>
<glyph name="guarani.tf.ss02" format="2">
  <advance width="596.0"/>
  <outline>
    <contour>
      <point x="304.975" y="14.925" type="curve" smooth="yes"/>
      <point x="487.475" y="14.925"/>
      <point x="591.725" y="144.95"/>
      <point x="591.725" y="324.625" type="curve" smooth="yes"/>
      <point x="591.725" y="344.0"/>
      <point x="590.05" y="368.775"/>
      <point x="587.375" y="385.175" type="curve"/>
      <point x="272.975" y="385.175" type="line"/>
      <point x="272.975" y="287.425" type="line"/>
      <point x="501.20000000000005" y="287.425" type="line"/>
      <point x="472.22499999999997" y="301.025" type="line"/>
      <point x="465.5" y="190.375"/>
      <point x="405.675" y="124.07499999999999"/>
      <point x="307.325" y="124.07499999999999" type="curve" smooth="yes"/>
      <point x="194.75" y="124.07499999999999"/>
      <point x="127.1" y="221.875"/>
      <point x="127.1" y="350.625" type="curve" smooth="yes"/>
      <point x="127.1" y="479.375"/>
      <point x="197.9" y="578.5"/>
      <point x="307.325" y="578.5" type="curve" smooth="yes"/>
      <point x="372.9" y="578.5"/>
      <point x="400.675" y="560.575"/>
      <point x="442.025" y="509.975" type="curve"/>
      <point x="528.35" y="580.95" type="line"/>
      <point x="464.3" y="658.65"/>
      <point x="404.6" y="687.65"/>
      <point x="304.975" y="687.65" type="curve" smooth="yes"/>
      <point x="129.9" y="687.65"/>
      <point x="7.975" y="537.925"/>
      <point x="7.975" y="350.625" type="curve" smooth="yes"/>
      <point x="7.975" y="163.65"/>
      <point x="131.2" y="14.925"/>
    </contour>
    <contour>
      <point x="273.9" y="666.5" type="line"/>
      <point x="354.025" y="666.5" type="line"/>
      <point x="354.025" y="775.0" type="line"/>
      <point x="273.9" y="775.0" type="line"/>
    </contour>
    <contour>
      <point x="273.9" y="-69.0" type="line"/>
      <point x="354.025" y="-69.0" type="line"/>
      <point x="354.025" y="39.5" type="line"/>
      <point x="273.9" y="39.5" type="line"/>
    </contour>
  </outline>
</glyph>
<glyph name="naira.tf" format="2">
  <advance width="596.0"/>
  <outline>
    <contour>
      <point x="65.125" y="30.0" type="line"/>
      <point x="179.2" y="30.0" type="line"/>
      <point x="179.2" y="344.0" type="line" smooth="yes"/>
      <point x="179.2" y="394.275"/>
      <point x="177.20000000000002" y="438.05"/>
      <point x="173.2" y="473.225" type="curve"/>
      <point x="176.2" y="473.225" type="line"/>
      <point x="182.225" y="455.47499999999997"/>
      <point x="199.525" y="424.975"/>
      <point x="214.5" y="399.35" type="curve" smooth="yes"/>
      <point x="433.875" y="30.0" type="line"/>
      <point x="530.875" y="30.0" type="line"/>
      <point x="530.875" y="670.0" type="line"/>
      <point x="416.80000000000007" y="670.0" type="line"/>
      <point x="416.80000000000007" y="362.32500000000005" type="line" smooth="yes"/>
      <point x="416.80000000000007" y="293.975"/>
      <point x="420.15" y="255.175"/>
      <point x="424.475" y="229.425" type="curve"/>
      <point x="420.475" y="229.425" type="line"/>
      <point x="414.775" y="247.85"/>
      <point x="403.475" y="282.95000000000005"/>
      <point x="388.475" y="308.625" type="curve" smooth="yes"/>
      <point x="173.55" y="670.0" type="line"/>
      <point x="65.125" y="670.0" type="line"/>
    </contour>
    <contour>
      <point x="4.7250000000000005" y="319.275" type="line"/>
      <point x="591.275" y="319.275" type="line"/>
      <point x="591.275" y="400.05" type="line"/>
      <point x="4.7250000000000005" y="400.05" type="line"/>
    </contour>
  </outline>
</glyph>
<glyph name="seven.numr" format="2">
  <advance width="297.425"/>
  <outline>
    <contour>
      <point x="58.075" y="314.34999999999997" type="line"/>
      <point x="136.675" y="314.34999999999997" type="line"/>
      <point x="288.725" y="687.0" type="line"/>
      <point x="288.725" y="700.0" type="line"/>
      <point x="15.9" y="700.0" type="line"/>
      <point x="15.9" y="634.45" type="line"/>
      <point x="187.7" y="634.45" type="line"/>
      <point x="187.7" y="633.4499999999999" type="line"/>
      <point x="185.7" y="630.45"/>
      <point x="183.025" y="626.775"/>
      <point x="181.02499999999998" y="621.775" type="curve" smooth="yes"/>
    </contour>
  </outline>
</glyph>
<glyph name="three.numr" format="2">
  <advance width="331.45"/>
  <outline>
    <contour>
      <point x="158.375" y="308.0" type="curve" smooth="yes"/>
      <point x="235.125" y="308.0"/>
      <point x="290.775" y="353.05"/>
      <point x="290.775" y="429.025" type="curve" smooth="yes"/>
      <point x="290.775" y="474.32500000000005"/>
      <point x="267.85" y="509.67499999999995"/>
      <point x="227.77500000000003" y="525.725" type="curve"/>
      <point x="227.77500000000003" y="526.725" type="line"/>
      <point x="268.525" y="543.725"/>
      <point x="282.1" y="576.425"/>
      <point x="282.1" y="601.0" type="curve" smooth="yes"/>
      <point x="282.1" y="664.6750000000001"/>
      <point x="233.425" y="706.675"/>
      <point x="158.375" y="706.675" type="curve" smooth="yes"/>
      <point x="93.375" y="706.675"/>
      <point x="24.95" y="673.35"/>
      <point x="28.975" y="584.0" type="curve"/>
      <point x="100.2" y="584.0" type="line"/>
      <point x="98.2" y="625.8499999999999"/>
      <point x="128.175" y="641.8"/>
      <point x="157.35" y="641.8" type="curve" smooth="yes"/>
      <point x="195.35" y="641.8"/>
      <point x="210.55" y="618.4499999999999"/>
      <point x="210.55" y="592.625" type="curve" smooth="yes"/>
      <point x="210.55" y="558.375"/>
      <point x="179.6" y="544.7750000000001"/>
      <point x="145.35000000000002" y="544.7750000000001" type="curve" smooth="yes"/>
      <point x="104.4" y="544.7750000000001" type="line"/>
      <point x="104.4" y="481.225" type="line"/>
      <point x="145.025" y="481.225" type="line" smooth="yes"/>
      <point x="182.925" y="481.225"/>
      <point x="217.20000000000002" y="466.6"/>
      <point x="217.20000000000002" y="428.7" type="curve" smooth="yes"/>
      <point x="217.20000000000002" y="395.425"/>
      <point x="196.525" y="372.875"/>
      <point x="158.375" y="372.875" type="curve" smooth="yes"/>
      <point x="125.47500000000001" y="372.875"/>
      <point x="96.85" y="393.15000000000003"/>
      <point x="98.85000000000001" y="435.0" type="curve"/>
      <point x="25.275" y="435.0" type="line"/>
      <point x="21.6" y="343.625"/>
      <point x="91.35" y="308.0"/>
    </contour>
  </outline>
</glyph>
